<svg width="638" height="565" viewBox="0 0 638 565" fill="none" xmlns="http://www.w3.org/2000/svg">
<path opacity="0.7" d="M138.418 186.868L351.879 522.463L566.193 186.868H138.418Z" stroke="#2B2B39" stroke-linecap="round" stroke-linejoin="round" stroke-dasharray="3 3"/>
<circle cx="535.635" cy="193.633" r="96.4193" fill="white"/>
<circle cx="535.635" cy="193.633" r="95.4193" stroke="#FFAF2E" stroke-opacity="0.6" stroke-width="2"/>
<mask id="mask0_5_1388" style="mask-type:alpha" maskUnits="userSpaceOnUse" x="360" y="63" width="278" height="272">
<path d="M632.055 193.633C632.055 140.382 588.887 63.0002 535.636 63.0002C486.163 63.0002 445.393 129.79 439.857 181.969C390.732 175.749 324.914 151.644 384.787 196.743C408.538 214.634 423.155 240.547 451.671 241.065C468.229 270.313 499.627 290.052 535.636 290.052C562.135 290.052 586.137 279.362 603.566 262.059L598.991 305.234C598.991 388.435 654.847 273.257 632.055 193.633Z" fill="#C4C4C4"/>
</mask>
<g mask="url(#mask0_5_1388)">
<path d="M531.097 141.502C505.151 162.198 507.796 206.2 506.229 230.151C505.128 246.906 501.68 270.917 499.49 284.659L548.103 291.817V207.576C548.103 179.496 550.057 144.986 557.717 137.552C552.382 136.961 547.67 137.113 544.441 137.552C541.88 137.532 538.673 137.964 535.163 139.384C533.619 140.3 532.484 140.71 531.097 141.502Z" fill="white"/>
<path opacity="0.5" d="M531.097 141.501C505.151 162.198 507.796 206.199 506.229 230.15C505.128 246.905 501.68 270.917 499.49 284.658C517.977 291.461 526.079 293.082 548.103 291.816V207.576C548.103 185.869 549.271 160.319 553.342 146.406C548.962 153.427 542.891 187.316 543.817 207.576C544.744 227.836 544.126 267.304 538.258 278.295C532.383 289.286 502.107 281.042 504.887 272.494C507.667 263.945 507.667 236.163 510.138 204.107C512.115 178.462 524.936 151.684 531.097 141.501Z" fill="#FFB83B"/>
<path d="M538.26 278.295C532.385 289.286 502.109 281.043 504.889 272.494C511.993 283.485 528.987 280.127 531.767 275.853C534.547 271.579 538.877 260.893 538.877 242.88C538.877 228.47 542.584 200.851 544.437 188.843C543.831 195.552 543.567 202.068 543.819 207.576C544.746 227.836 544.128 267.304 538.26 278.295Z" fill="#FFF9EF"/>
<path d="M510.137 204.108C511.687 184.07 519.847 163.339 526.283 150.375C522.65 158.211 515.456 178.463 515.703 196.78C515.95 215.098 510.424 237.996 507.627 247.155C508.284 235.127 508.902 220.153 510.137 204.108Z" fill="#FFF9EF"/>
<path d="M494.689 317.984L483.873 316.458C485.524 305.158 496.975 249.962 501.721 213.633C502.754 205.707 503.827 197.415 504.916 188.856C509.123 155.706 523.685 145.933 535.159 139.384C509.213 160.081 507.792 206.2 506.225 230.151C505.124 246.906 501.676 270.917 499.486 284.659C499.171 286.631 494.942 316.487 494.689 317.984Z" fill="#FFAF2E"/>
<path d="M501.721 213.632C502.754 205.707 503.827 197.415 504.916 188.856C504.596 199.232 503.827 216.281 501.721 233.721C497.761 266.525 493.454 296.307 483.873 316.457C485.524 305.157 496.975 249.962 501.721 213.632Z" fill="#F3A00D"/>
<path d="M598.502 317.068C593.251 294.171 585.523 204.108 585.523 204.108C585.523 204.108 591.752 172.326 581.508 156.786C574.96 146.846 557.718 137.552 557.718 137.552C550.058 144.985 548.103 179.496 548.103 207.576V291.816V321.037C561.425 323.784 583.67 325.006 598.502 317.068Z" fill="#FFAF2E"/>
<path d="M551.995 151.901C549.007 166.407 548.103 188.479 548.103 207.576V279.516C549.401 268.933 551.72 241.17 550.614 214.793C549.507 188.415 551.074 161.874 551.995 151.901Z" fill="#F9A319"/>
<path d="M598.502 317.068C593.251 294.171 585.523 204.108 585.523 204.108C585.523 204.108 591.752 172.326 581.508 156.786C581.508 173.272 573.477 195.559 578.11 217.846C584.344 247.817 589.539 275.242 583.67 296.002C578.975 312.611 557.999 319.612 548.103 321.037C561.425 323.784 583.67 325.006 598.502 317.068Z" fill="#F9A319"/>
<path d="M632.793 227.31C634.646 208.382 616.113 180.6 595.103 159.839C585.758 150.606 566.68 139.69 557.716 137.552L585.522 204.108C585.522 204.108 594.159 213.633 605.15 230.151C608.553 222.718 622.908 217.846 632.793 227.31Z" fill="#FFAF2E"/>
<path d="M632.794 227.31C634.647 208.381 616.108 180.599 595.104 159.839C590.224 155.019 582.692 149.739 575.33 145.49C577.7 149.56 582.805 158.862 584.287 163.502C586.141 169.303 625.998 192.49 622.6 222.265C626.122 222.768 629.677 224.327 632.794 227.31Z" fill="#F9A319"/>
<path d="M601.844 222.262C602.428 216.498 607.92 213.136 611.812 212.175C620.562 210.014 629.307 212.656 633.681 219.14C637.5 224.795 633.199 233.07 629.307 236.192C630.037 225.384 625.909 221.542 616.912 222.983C607.92 224.424 605.247 229.948 604.764 234.751C602.574 233.07 601.114 229.467 601.844 222.262Z" fill="#F9A319"/>
<path d="M616.911 222.983C607.919 224.424 605.246 229.948 604.757 234.751C605.572 244.758 607.043 268.279 606.459 282.305C605.734 299.837 604.757 305.841 601.601 313.526C598.439 321.212 602.618 329.195 608.694 327.754C614.771 326.312 619.73 319.29 618.275 313.526C616.815 307.762 618.275 301.998 620.701 297.915C623.133 293.832 629.305 258.768 629.305 236.192C630.035 225.384 625.902 221.542 616.911 222.983Z" fill="#FFD0B7"/>
<path d="M504.919 188.856C509.126 155.706 523.688 145.933 535.162 139.384C525.57 144.491 503.942 150.375 488.166 178.12C474.766 201.685 464.584 207.891 460.4 208.992C465.455 213.672 474.21 227.745 473.373 236.774C478.815 232.81 494.411 219.506 501.723 213.633C502.757 205.707 503.83 197.415 504.919 188.856Z" fill="#FFAF2E"/>
<path d="M501.722 213.632C502.755 205.707 503.828 197.415 504.917 188.856C501.935 203.829 490.675 212.656 484.497 214.793C479.549 216.502 474.573 225.886 472.709 230.363C473.287 232.638 473.551 234.824 473.371 236.775C478.813 232.81 494.409 219.506 501.722 213.632Z" fill="#F9A319"/>
<path d="M468.629 223.666C465.17 212.978 460.093 209.654 457.925 209.298C458.65 208.585 460.57 206.939 462.951 206.298C465.922 205.496 474.307 206.298 478.093 212.444C481.299 217.648 484.854 226.071 478.093 234.355C472.684 240.981 461.059 240.322 455.92 239.164C461.598 238.452 471.746 233.286 468.629 223.666Z" fill="#F9A319"/>
<path d="M455.919 239.164C461.597 238.452 471.745 233.286 468.628 223.666C466.14 215.98 462.871 210.519 457.924 209.297C456.755 209.728 454.459 210.68 445.372 206.832C434.016 202.023 396.97 185.188 394.266 182.784C391.561 180.379 385.613 172.096 377.23 172.363C368.848 172.63 371.822 187.86 381.827 190.533C391.832 193.205 400.215 200.419 405.082 205.764C409.949 211.107 436.178 237.027 455.919 239.164Z" fill="#FFD0B7"/>
<path d="M534.902 139.396V122.822L557.715 111.907V137.552C547.544 156.287 533.976 151.518 534.902 139.396Z" fill="#FFD0B7"/>
<path d="M537.425 121.616L557.716 111.907V137.552C557.699 137.589 557.677 137.626 557.66 137.663C556.638 139.529 555.588 141.159 554.515 142.571C550.741 136.956 540.761 128.242 534.903 123.89V123.029L537.425 121.616Z" fill="url(#paint0_linear_5_1388)"/>
<path d="M523.58 81.0428C523.58 90.7703 528.516 91.9534 532.15 91.4401L554.367 115.315C554.626 115.829 557.114 117.945 557.114 122.94C557.114 128.005 561.146 117.493 564.134 115.315C570.323 110.807 574.529 110.674 576.489 103.239C578.174 96.8566 575.798 92.3386 573.85 91.4401C572.682 90.9268 571.435 89.8229 569.565 89.5149C567.694 89.2064 567.223 86.0492 567.223 84.5086C567.093 83.3537 566.588 81.7471 563.606 79.8874C561.753 78.7325 556.962 78.2186 555.142 79.8874C553.974 80.5295 551.323 81.1971 550.077 78.7325C548.83 76.2679 546.179 77.1919 545.011 77.9616C541.585 79.1937 533.638 75.5747 530.549 66.1104C526.843 70.9952 523.58 74.3533 523.58 81.0428Z" fill="#2B2B39"/>
<path d="M573.851 91.4404C572.683 90.9265 571.436 89.8227 569.566 89.5146C579.203 96.6016 571.436 107.956 565.258 111.008C560.316 113.45 557.772 119.98 557.115 122.94C557.115 128.005 561.147 117.493 564.135 115.315C570.324 110.807 574.53 110.673 576.49 103.239C578.175 96.8569 575.8 92.3383 573.851 91.4404Z" fill="#13131C"/>
<path d="M545.013 77.9617C541.587 79.1937 533.641 75.5742 530.552 66.1104C530.608 71.8032 533.416 82.7599 544.199 81.0428C545.884 80.4851 547.849 79.3751 550.096 81.595C552.342 83.8149 558.026 78.7319 563.608 79.8874C561.755 78.7319 556.964 78.218 555.145 79.8874C553.977 80.5289 551.326 81.1965 550.079 78.7319C548.832 76.2673 546.187 77.1914 545.013 77.9617Z" fill="#13131C"/>
<path d="M543.458 123.787C552.5 121.014 556.055 114.673 556.707 111.85C556.971 110.694 557.616 107.486 557.487 106.074C556.549 103.301 553.719 107.229 552.421 109.539C550.686 112.62 550.372 101.838 552.421 99.1422C555.224 95.445 550.86 94.466 548.911 93.3661C548.002 92.8522 545.486 91.9798 542.678 92.5958C539.869 93.2118 538.392 91.5685 537.999 90.67C536.96 89.0018 534.259 86.6654 531.765 90.67C525.84 99.6044 526.958 111.336 528.261 116.086C529.558 119.808 534.416 126.56 543.458 123.787Z" fill="#FFD0B7"/>
</g>
<g filter="url(#filter0_d_5_1388)">
<circle cx="155.659" cy="173.022" r="97.659" fill="white"/>
<circle cx="155.659" cy="173.022" r="96.659" stroke="#217BF4" stroke-opacity="0.6" stroke-width="2"/>
</g>
<mask id="mask1_5_1388" style="mask-type:alpha" maskUnits="userSpaceOnUse" x="58" y="49" width="220" height="246">
<path d="M58 173.45C58 119.514 101.723 49.0869 155.659 49.0869C285.668 45.4247 282.056 158.445 274.681 215.412H243.868C228.172 248.348 194.574 271.109 155.659 271.109C142.708 271.109 130.346 268.588 119.037 264.01C118.269 263.699 117.506 263.379 116.748 263.049C114.205 269.296 109.271 283.774 109.881 291.708C97.674 301.627 67.7536 282.4 70.2006 220.753C62.4267 206.739 58 190.611 58 173.45Z" fill="#C4C4C4"/>
</mask>
<g mask="url(#mask1_5_1388)">
<path d="M267.623 193.067C261.649 194.878 254.24 197.437 248.742 196.102C244.335 195.031 244.666 193.639 244.168 190.719C245.565 188.35 251.469 183.795 262.899 181.472C277.185 178.567 278.128 189.881 267.623 193.067Z" fill="#FEBE9D"/>
<path d="M202.666 150.386C200.906 146.112 196.068 145.4 193.869 145.578C177.845 151.989 187.585 198.198 191.355 204.342C195.125 210.485 199.524 212.889 203.923 214.759C208.321 216.629 217.119 215.56 219.318 214.225C221.518 212.889 222.146 211.553 224.659 211.286C227.173 211.019 231.258 210.218 232.828 208.615C234.399 207.013 235.656 205.41 239.427 205.41C243.197 205.41 246.339 202.739 247.595 201.137C248.852 199.534 249.795 199.267 251.994 198.732C254.194 198.198 256.393 198.198 257.021 195.527C257.65 192.856 257.964 187.514 257.65 184.843C257.335 182.172 257.335 182.172 255.764 182.439C254.194 182.706 250.109 184.843 248.852 184.843C247.595 184.843 245.396 184.576 243.197 185.377C240.997 186.179 233.771 189.117 229.058 190.452C224.345 191.788 217.433 192.055 218.061 190.185C218.69 188.316 220.889 182.974 216.49 182.974C212.092 182.974 212.092 180.035 210.207 173.892C208.321 167.748 204.865 155.728 202.666 150.386Z" fill="#217BF4"/>
<path d="M249.168 196.597C250.529 196.508 253.629 195.956 255.137 194.46M250.424 187.783C251.367 186.981 253.818 185.378 256.08 185.378L250.424 187.783ZM252.624 189.118L255.137 188.05L252.624 189.118ZM249.482 192.858C250.948 192.679 254.257 192.003 255.766 190.721L249.482 192.858Z" stroke="#2068D9" stroke-width="1.07894"/>
<path d="M250.02 199.286C249.446 197.156 248.874 193.831 249.481 191.254C248.852 193.123 247.03 197.504 244.768 200.068C241.94 203.274 238.484 203.006 237.856 200.335C237.227 197.664 233.457 199.267 232.2 202.472C230.944 205.677 228.116 209.684 223.403 209.951C218.988 210.201 216.779 211.154 215.484 211.713C215.397 211.751 215.313 211.787 215.234 211.821C213.977 212.355 214.291 210.218 215.548 208.883C216.805 207.547 218.376 204.075 218.061 202.205C216.491 205.143 213.349 209.15 208.322 210.485C203.294 211.821 200.467 208.616 204.237 205.677C208.007 202.739 210.835 200.068 211.777 197.664C212.134 196.756 211.637 197.068 210.644 197.693C209.01 198.722 206.031 200.596 203.294 199.267C198.896 197.13 199.524 190.987 202.98 189.918C204.084 189.577 205.734 189.481 207.509 189.377C211.289 189.158 215.635 188.905 216.491 186.179C214.606 187.247 203.609 188.85 203.294 182.172C202.98 175.495 202.352 170.954 200.781 167.214C200.259 165.972 200.014 164.347 199.76 162.652C199.247 159.244 198.691 155.553 195.754 154.126C194.915 153.719 191.447 153.874 186.709 154.696C181.829 170.33 188.412 199.546 191.355 204.342C195.125 210.486 199.524 212.89 203.923 214.759C208.321 216.629 217.119 215.561 219.318 214.225C220.037 213.789 220.589 213.352 221.092 212.953C222.13 212.131 222.968 211.467 224.659 211.287C227.173 211.02 231.258 210.219 232.828 208.616C232.941 208.501 233.052 208.386 233.163 208.271C234.593 206.791 235.927 205.411 239.427 205.411C243.197 205.411 246.339 202.74 247.595 201.137C248.396 200.116 249.069 199.637 250.02 199.286Z" fill="#1771EA"/>
<path d="M194.4 208.417C195.962 206.682 198.614 204.244 201.095 203.54C204.866 202.472 202.98 201.938 199.838 203.006C196.697 204.074 196.068 203.273 195.754 199.801C195.44 196.328 196.697 190.185 198.582 185.911C200.467 181.637 202.98 168.282 197.639 163.207C195.182 160.873 190 161.138 185.149 163.535C183.936 179.448 188.906 200.35 191.355 204.341C192.332 205.932 193.35 207.272 194.4 208.417Z" fill="#2068D9"/>
<path d="M246.967 196.864C249.732 193.659 249.376 187.871 248.852 185.378C249.69 187.516 250.863 192.537 248.852 195.529C246.339 199.268 246.339 197.665 246.967 196.864Z" fill="#3881F2"/>
<path d="M171.249 274.056C180.548 270.424 192.928 272.187 197.955 273.522C198.583 273.682 199.212 273.522 200.468 269.783C201.725 266.044 200.783 256.695 200.468 255.894C200.154 255.092 200.154 254.558 200.468 253.223C202.039 244.408 196.07 223.307 193.556 211.554C191.042 199.802 194.499 188.85 197.955 180.837C201.411 172.824 198.583 162.407 197.64 151.723C196.698 141.039 186.016 140.237 171.563 137.299C157.11 134.361 138.572 134.361 130.403 151.99C122.234 169.619 129.775 192.59 130.403 205.678C131.031 218.766 124.748 229.985 120.663 241.47C116.579 252.956 117.522 261.503 116.264 268.982C115.259 274.965 117.312 277.529 118.464 278.063C118.569 279.399 118.778 282.978 118.778 286.611C118.778 291.151 120.663 293.555 125.376 293.288C130.089 293.021 137.63 290.35 144.228 286.076C150.826 281.803 159.623 278.597 171.249 274.056Z" fill="#217BF4"/>
<path d="M171.563 223.574C163.017 229.984 152.502 228.737 148.313 227.313C148.313 228.47 150.324 231.373 158.367 233.724C168.421 236.662 175.333 229.984 178.161 224.642C180.423 220.368 185.387 214.314 187.587 211.821C185.806 213.067 180.109 217.163 171.563 223.574Z" fill="#3881F2"/>
<path d="M197.955 273.522C192.928 272.187 180.548 270.424 171.248 274.056C169.972 274.555 168.73 275.037 167.521 275.506C157.718 279.314 150.102 282.272 144.228 286.076C137.63 290.35 130.089 293.021 125.376 293.288C120.663 293.555 118.778 291.151 118.778 286.61C118.778 282.978 118.569 279.399 118.464 278.063C117.312 277.529 115.259 274.964 116.264 268.982C116.668 266.584 116.844 264.076 117.034 261.396C117.434 255.72 117.888 249.273 120.663 241.47C121.608 238.813 122.671 236.17 123.739 233.515C127.285 224.693 130.886 215.738 130.403 205.678C130.237 202.209 129.585 198.045 128.868 193.47C126.881 180.787 124.4 164.946 130.403 151.989C130.506 151.767 130.611 151.548 130.717 151.331C143.068 141.49 155.317 137.3 165.585 136.314C167.628 136.566 169.632 136.906 171.563 137.299C173.109 137.613 174.613 137.904 176.067 138.184C181.694 139.269 186.564 140.208 190.252 141.857C190.884 142.465 191.361 143.088 191.671 143.709C196.07 152.523 186.958 162.673 179.732 167.748C172.505 172.823 174.076 174.959 182.245 172.822C189.486 170.928 188.334 171.552 179.446 176.368C178.307 176.986 177.04 177.672 175.647 178.431C163.394 185.109 177.218 182.437 187.272 180.3C197.326 178.164 195.441 183.239 193.242 185.375C192.321 186.271 191.289 186.79 190.379 187.25C189.115 187.887 188.083 188.407 187.901 189.649C187.586 191.786 185.387 194.19 182.559 195.258C182.336 195.343 182.109 195.427 181.878 195.512C179.196 196.509 176.127 197.648 174.39 200.6C172.505 203.806 167.792 204.339 162.137 204.072C156.481 203.805 148.941 205.941 155.853 211.551C162.765 217.16 172.505 213.153 177.532 211.016C165.907 223.303 149.255 214.222 146.113 209.948C142.971 205.674 141.4 204.339 137.315 205.407C133.231 206.476 131.974 211.549 135.745 212.618C137.415 213.091 139.148 212.883 140.559 212.713C142.333 212.5 143.599 212.348 143.599 213.687C143.599 215.721 138.647 219.287 134.268 222.44C133.473 223.012 132.698 223.57 131.974 224.104C127.261 227.576 132.603 230.514 136.059 231.583C139.515 232.651 138.572 233.986 132.917 239.329C125.062 247.076 140.143 254.287 153.968 246.007C165.028 239.383 174.704 238.795 178.161 239.329C174.181 240.309 164.525 243.817 157.738 250.014C152.018 255.237 144.441 256.695 137.703 257.992C134.449 258.618 131.391 259.206 128.832 260.164C120.977 263.102 125.062 268.978 131.66 269.245C135.179 269.388 141.381 266.034 148.499 262.185C154.727 258.817 161.656 255.071 168.106 252.952C181.931 248.411 191.357 251.884 196.384 253.754C188.215 253.22 165.279 259.897 153.339 266.575C147.565 269.805 143.26 271.035 139.501 272.109C135.488 273.256 132.097 274.225 128.204 277.259C120.663 283.136 130.717 287.142 137.944 286.074C141.172 285.596 145.717 282.987 150.907 280.007C157.334 276.317 164.75 272.06 171.877 270.582C181.41 268.605 193.471 270.743 199.453 272.343C198.818 273.59 198.386 273.631 197.955 273.522Z" fill="#1771EA"/>
<path d="M129.997 201.197C131.297 199.624 133.17 197.235 134.174 195.528C135.744 192.858 136.687 191.789 138.886 193.659C141.086 195.528 144.542 195.262 146.427 193.125C146.39 193.272 146.353 193.417 146.316 193.561C145.422 197.069 144.801 199.504 151.14 198.734C153.458 198.452 156.784 198.83 160.001 199.196C165.942 199.87 171.512 200.503 169.677 196.864C166.849 191.255 164.964 177.633 170.62 172.825C175.144 168.979 178.998 163.565 180.36 161.339C182.873 156.264 182.622 146.382 161.508 147.45C153.127 147.874 143.986 146.116 135.432 144.418C133.501 146.475 131.8 148.974 130.403 151.989C124.399 164.946 126.881 180.787 128.868 193.47C129.298 196.214 129.704 198.81 129.997 201.197Z" fill="#2068D9"/>
<path d="M185.701 263.638C192.237 263.852 193.661 259.809 193.556 257.762C193.556 256.159 195.441 256.159 194.499 263.104C193.556 270.049 182.245 266.309 172.505 267.11C162.765 267.912 148.941 274.056 145.485 275.925C162.451 263.371 177.532 263.371 185.701 263.638Z" fill="#3881F2"/>
<path d="M192.925 254.824C193.658 257.584 194.999 264.547 194.496 270.316M123.489 279.665C123.489 281.623 123.677 286.342 124.431 289.548L123.489 279.665ZM131.029 276.193C131.762 278.596 133.166 283.938 132.915 286.075L131.029 276.193ZM136.056 273.521C136.58 275.391 137.627 280.573 137.627 286.342L136.056 273.521ZM142.34 274.055V281V274.055ZM147.367 270.316C147.996 271.919 149.064 275.872 148.31 278.863L147.367 270.316ZM152.394 267.378C152.918 269.159 153.966 273.415 153.966 276.193L152.394 267.378ZM158.678 265.775V272.72V265.775ZM164.648 262.303C165.172 264.618 165.905 270.102 164.648 273.521V262.303ZM169.047 260.967C169.78 262.481 171.12 266.31 170.618 269.515L169.047 260.967ZM176.587 259.632C176.587 261.947 176.587 266.79 176.587 267.645V259.632ZM180.672 257.495C180.986 259.632 181.614 264.814 181.614 268.446L180.672 257.495ZM189.155 260.7C189.26 262.837 189.281 267.592 188.527 269.515L189.155 260.7Z" stroke="#2068D9" stroke-width="1.07894"/>
<path d="M126.633 274.858C147.16 265.51 190.54 247.721 198.583 254.559" stroke="#3881F2" stroke-width="1.07894"/>
<path d="M116.264 268.981C115.259 274.964 117.312 277.528 118.464 278.062C118.514 278.699 118.588 279.847 118.651 281.268C121.521 278.953 127.89 274.002 130.403 272.72C125.691 274.056 119.467 276.727 118.651 270.85C117.836 264.974 120.977 258.831 122.862 255.626C124.748 252.42 127.002 242.804 124.619 231.319C123.264 234.716 121.868 238.081 120.663 241.469C116.579 252.954 117.522 261.502 116.264 268.981Z" fill="#2068D9"/>
<path d="M93.3214 282.414C93.7508 276.186 94.8431 268.612 98.0457 263.947C100.612 260.208 101.796 261.012 104.702 261.585C106.42 263.732 109.384 270.904 107.494 282.414C105.132 296.801 92.5663 293.365 93.3214 282.414Z" fill="#FEBE9D"/>
<path d="M91.7565 273.522C92.2592 272.454 92.5944 270.94 92.6991 270.317C93.6416 263.372 92.6991 256.695 92.6991 245.21C92.6991 233.724 95.5272 221.704 98.0404 217.43C100.554 213.157 99.9255 209.417 101.183 207.281C102.439 205.144 106.209 202.74 104.953 195.528C103.696 188.316 108.095 187.515 108.409 178.433C108.723 169.352 110.608 157.866 116.578 149.853C122.548 141.84 144.541 136.498 146.741 151.723C148.94 166.947 140.771 177.098 137.315 183.775C133.859 190.453 129.46 204.876 128.831 208.616C128.203 212.355 125.375 223.04 125.375 227.58C125.375 232.121 124.119 240.401 122.233 247.613C120.348 254.825 116.264 263.639 115.007 264.441C113.75 265.242 113.122 265.776 113.122 267.112C113.122 268.447 112.493 272.988 112.179 274.591C111.865 276.193 111.551 276.727 110.608 276.193C109.666 275.659 108.095 275.659 105.267 275.659C102.439 275.659 97.7263 276.193 94.8986 275.926C92.0709 275.659 91.1284 274.858 91.7565 273.522Z" fill="#217BF4"/>
<path d="M104.011 266.312C97.9791 267.594 94.7952 266.49 93.9573 265.777C95.7377 266.312 99.9693 266.745 103.383 265.777C106.211 264.975 110.191 265.065 111.552 265.51C110.086 265.51 106.525 265.67 104.011 266.312Z" fill="#3881F2"/>
<path d="M108.41 266.844C108.096 267.912 107.719 270.317 108.725 271.385C109.73 272.453 108.934 273.433 108.41 273.789M97.4135 269.248C97.6229 270.049 97.7905 272.079 96.7854 273.789L97.4135 269.248ZM101.812 267.378L101.498 273.254L101.812 267.378Z" stroke="#2068D9" stroke-width="1.07894"/>
<path d="M108.427 275.711C109.245 274.273 110.176 272.043 109.981 270.049C109.667 266.844 105.268 265.776 102.755 266.31C105.896 264.975 112.809 262.037 114.694 255.359C116.579 248.682 115.95 244.675 109.981 244.141C108.724 244.141 107.467 243.874 111.866 240.668C116.265 237.463 123.177 231.32 116.579 227.58C109.981 223.841 105.582 220.903 104.64 216.896C107.781 219.033 111.552 221.437 113.123 221.704C114.482 221.935 114.43 221.766 113.782 219.643C113.68 219.311 113.564 218.932 113.437 218.499C112.494 215.293 110.295 207.28 110.295 204.876C111.238 207.815 112.809 212.355 116.893 214.225C120.978 216.095 122.234 211.02 121.606 207.547C120.978 204.075 120.663 201.404 124.748 198.466C128.832 195.528 135.43 185.111 130.717 180.57C126.005 176.029 117.522 167.749 117.836 161.338C118.08 156.354 117.565 154.761 115.256 151.788C115.673 151.124 116.113 150.478 116.579 149.853C120.845 144.126 133.295 139.764 140.856 143.297C141.563 143.724 142.263 144.156 142.955 144.594C144.891 146.144 146.27 148.461 146.741 151.723C148.572 164.398 143.217 173.556 139.377 180.121C138.605 181.441 137.894 182.657 137.315 183.775C133.86 190.453 129.461 204.876 128.832 208.616C128.638 209.773 128.232 211.596 127.766 213.697C126.724 218.381 125.376 224.445 125.376 227.58C125.376 232.121 124.119 240.401 122.234 247.613C120.349 254.825 116.264 263.639 115.008 264.441C113.751 265.242 113.123 265.776 113.123 267.112C113.123 268.447 112.494 272.988 112.18 274.591C111.866 276.193 111.552 276.727 110.609 276.193C110.099 275.904 109.405 275.772 108.427 275.711Z" fill="#1771EA"/>
<path d="M132.086 197.076C130.441 202.068 129.152 206.717 128.833 208.615C128.638 209.772 128.233 211.595 127.766 213.696C126.725 218.38 125.377 224.444 125.377 227.579C125.377 228.997 125.254 230.778 125.028 232.778C123.363 229.512 120.687 225.916 117.208 225.177C111.768 224.02 115.039 224.065 117.443 224.098C117.817 224.103 118.169 224.108 118.465 224.108C120.664 224.108 121.606 223.039 119.093 221.703C117.082 220.635 114.066 214.847 112.809 212.087C114.171 214.847 118.15 220.368 123.177 220.368C124.748 220.368 126.005 219.032 125.063 216.361C124.225 213.988 126.86 203.813 132.086 197.076Z" fill="#2068D9"/>
<path d="M148.676 133.08L150.861 120.657L166.427 123.898C166.063 125.518 166.099 130.542 166.973 136.591C167.847 142.641 170.432 145.864 171.889 146.854L148.676 133.08Z" fill="#FEBE9D"/>
<path d="M150.996 120.657L166.245 123.888C165.978 125.099 165.931 128.214 166.284 132.238C155.4 130.945 151.557 123.978 150.996 120.657Z" fill="#F2AD8A"/>
<path d="M142.331 174.912C141.759 171.189 144.334 170.391 146.623 169.327C148.02 168.678 149.737 167.831 150.342 166.18C154.359 167.753 158.375 168.149 164.648 167.341C164.934 171.105 165.563 179.805 165.792 184.485C166.078 190.336 168.081 199.643 161.5 196.452C154.92 193.261 152.917 192.995 149.77 193.793C146.623 194.591 144.334 193.793 144.048 188.74C143.762 183.687 142.903 175.975 142.331 174.912Z" fill="#8CB9FF"/>
<path d="M149.219 193.941C148.343 192.063 147.021 187.828 147.44 182.911C148.008 176.254 149.711 170.929 151.698 175.988C153.287 180.035 153.685 184.775 153.685 186.638C154.821 186.017 157.148 183.39 157.375 177.851C157.659 170.928 157.943 171.194 158.795 175.188C159.646 179.182 159.93 179.715 160.782 175.188C160.896 174.584 160.989 174.036 161.074 173.54C161.613 170.385 161.797 169.303 164.582 168.827C164.542 168.275 164.505 167.776 164.472 167.342C158.249 168.151 154.264 167.755 150.279 166.18C149.678 167.833 147.975 168.681 146.588 169.331C146.399 169.42 146.208 169.507 146.017 169.594C143.914 170.55 141.81 171.506 142.33 174.923C142.898 175.988 143.75 183.71 144.034 188.769C144.302 193.558 146.352 194.529 149.219 193.941Z" fill="#7EAEFA"/>
<path opacity="0.5" d="M142.889 177.346C143.966 175.085 145.851 171.972 147.736 171.444C150.582 170.648 151.151 170.117 152.004 169.321C152.858 168.524 153.711 169.055 153.996 170.117C154.28 171.179 155.134 170.117 155.987 169.056C156.841 167.994 158.548 168.79 158.833 169.587C158.934 169.871 159.29 169.682 159.9 169.356C160.847 168.852 162.408 168.02 164.582 168.131C164.561 167.848 164.541 167.583 164.523 167.339C158.285 168.145 154.291 167.751 150.297 166.18C149.695 167.827 147.988 168.673 146.598 169.322C146.409 169.41 146.217 169.497 146.026 169.583C143.917 170.537 141.809 171.489 142.331 174.896C142.499 175.211 142.693 176.108 142.889 177.346Z" fill="#70A2F2"/>
<path d="M163.066 127.957C152.698 126.674 144.405 117.77 141.648 113.672C136.133 115.009 135.03 114.206 134.754 110.463C134.478 106.721 141.648 104.85 143.027 98.7013C144.405 92.5532 149.093 81.0593 162.329 75.7127C175.565 70.3666 186.87 87.742 187.146 93.0885C187.422 98.4347 186.598 111.155 183.286 118.483C179.779 126.24 176.026 129.561 163.066 127.957Z" fill="#FEBE9D"/>
<path d="M142.176 113.14C136.693 114.473 135.405 114.508 135.13 110.778C129.921 111.844 118.68 115.728 115.39 122.734C111.278 131.492 115.39 132.891 118.132 134.223C120.874 135.555 119.503 139.285 115.939 139.818C112.375 140.351 112.1 137.686 111.826 136.088C110.181 143.281 115.939 143.281 118.406 142.215C116.761 146.478 117.309 149.675 121.148 150.741C124.986 151.806 121.148 155.803 121.148 159.532C121.148 163.262 125.26 165.393 125.535 168.058C125.809 170.722 129.099 172.054 132.389 173.119C135.679 174.185 134.308 175.517 132.937 177.915C131.566 180.312 133.759 182.177 134.034 185.374C134.308 188.571 136.501 188.838 139.243 189.371C136.501 184.842 138.146 183.243 139.791 181.911L139.843 181.87C141.465 180.556 142.801 179.474 142.259 175.784C141.71 172.054 144.178 171.255 146.371 170.189C148.565 169.123 151.581 167.525 149.387 162.729C147.194 157.934 154.048 154.737 155.693 149.941C157.338 145.146 153.5 139.285 151.854 137.153C150.21 135.022 148.565 131.825 148.016 130.493C147.468 129.161 148.016 129.161 148.29 129.427C149.661 130.76 149.935 129.694 150.21 128.362C150.429 127.296 150.667 124.166 150.758 122.734C146.577 119.765 143.676 115.375 142.176 113.14Z" fill="#2B2B39"/>
<path d="M165.953 131.559V128.113C172.769 128.595 176.661 127.343 179.442 124.632C185.099 131.293 180.091 137.154 179.269 138.486C177.624 136.354 174.334 135.555 173.511 135.555C172.689 135.555 171.866 135.821 171.044 134.49C170.221 133.157 169.947 131.559 168.302 130.493C166.986 129.641 166.188 130.849 165.953 131.559Z" fill="#2B2B39"/>
<path d="M134.75 125.38C136.409 126.595 139.258 130.013 137.384 133.97" stroke="#151523" stroke-width="0.8"/>
<path d="M142.175 128.386C145.717 131.114 151.975 137.89 148.669 143.169C144.536 149.769 143.651 152.145 143.651 157.161" stroke="#151523" stroke-width="0.8"/>
<path d="M135.21 161.026C137.101 160.232 140.26 156.95 137.764 150.175C135.267 143.399 138.426 139.411 140.317 138.265" stroke="#151523" stroke-width="0.8"/>
<path d="M125.696 140.841C123.418 143.039 120.229 147.911 125.696 149.811C132.53 152.185 134.17 154.559 131.983 159.308" stroke="#151523" stroke-width="0.8"/>
<path d="M124.531 154.154C125.232 154.974 126.213 157.324 124.531 160.167" stroke="#151523" stroke-width="0.8"/>
<path d="M120.975 125.012C120.032 125.902 118.775 128.324 121.289 130.888C124.431 134.094 124.117 135.963 122.546 138.1" stroke="#151523" stroke-width="0.8"/>
<path opacity="0.5" d="M127.306 113.971C126.073 115.625 124.856 117.483 123.909 119.351C123.012 121.121 122.351 122.912 122.157 124.554C121.963 126.195 122.232 127.714 123.235 128.907C123.474 129.191 123.707 129.466 123.933 129.732C124.836 130.793 125.629 131.726 126.2 132.612C126.91 133.713 127.248 134.7 127.031 135.716C126.812 136.736 126.023 137.839 124.339 139.147C123.143 140.077 121.509 141.099 119.34 142.258C119.225 142.528 119.119 142.794 119.024 143.055C121.536 141.743 123.412 140.591 124.763 139.542C126.496 138.196 127.396 136.995 127.649 135.811C127.903 134.624 127.494 133.507 126.751 132.355C126.159 131.437 125.336 130.469 124.431 129.405L124.431 129.404C124.207 129.141 123.978 128.872 123.746 128.597C122.864 127.547 122.597 126.174 122.782 124.607C122.968 123.04 123.603 121.305 124.486 119.562C125.56 117.445 126.99 115.334 128.391 113.527C128.029 113.67 127.667 113.818 127.306 113.971Z" fill="#1C1C2A"/>
<path opacity="0.5" d="M144.195 116.293C143.651 118.107 143.237 120.558 143.393 123.18C143.593 126.544 144.733 130.208 147.762 133.161C151.462 136.765 152.769 139.312 152.769 141.512C152.769 143.722 151.456 145.663 149.659 148.087C147.85 150.527 146.784 152.931 146.926 155.826C147.049 158.347 148.086 161.209 150.281 164.764C150.171 164.153 149.954 163.473 149.607 162.713C149.492 162.462 149.402 162.215 149.335 161.972C148.14 159.603 147.563 157.596 147.475 155.801C147.342 153.069 148.339 150.783 150.105 148.401C151.883 146.002 153.319 143.923 153.319 141.512C153.319 139.09 151.876 136.411 148.151 132.782C145.241 129.946 144.136 126.42 143.942 123.149C143.8 120.754 144.147 118.505 144.625 116.783C144.477 116.618 144.334 116.454 144.195 116.293Z" fill="#1C1C2A"/>
<path opacity="0.5" d="M138.721 189.37C138.178 188.741 137.662 188.005 137.259 187.187C136.366 185.371 136.038 183.158 137.204 180.781C138.58 177.978 138.076 175.483 137.612 173.187C137.55 172.88 137.489 172.577 137.433 172.277C137.194 170.994 137.048 169.772 137.303 168.547C137.557 167.331 138.212 166.089 139.621 164.782C141.116 163.394 141.677 161.958 141.789 160.467C141.883 159.218 141.66 157.928 141.435 156.624C141.396 156.396 141.356 156.167 141.318 155.938C141.061 154.385 140.871 152.793 141.209 151.113C141.546 149.439 142.412 147.66 144.304 145.75L144.311 145.742L144.319 145.734C145.631 144.171 145.832 142.059 145.124 139.922C144.435 137.842 142.884 135.716 140.613 133.973C141.264 132.731 141.707 129.763 139.394 125.87C137.889 123.336 136.953 121.104 136.853 118.958C136.78 117.398 137.149 115.865 138.092 114.279C137.879 114.27 137.681 114.248 137.499 114.213C136.595 115.808 136.228 117.375 136.304 118.983C136.409 121.258 137.399 123.581 138.918 126.138C141.259 130.079 140.621 132.922 140.054 133.852C138.33 134.98 135.95 137.135 134.317 140C132.744 142.759 131.858 146.189 132.941 149.986C132.85 149.947 132.756 149.909 132.66 149.871C128.985 148.412 127.732 146.732 127.606 145.142C127.477 143.514 128.51 141.845 129.745 140.375C130.99 138.892 132.601 136.646 133.269 134.178C133.942 131.692 133.658 128.972 131.096 126.613C129.193 124.863 128.701 122.608 128.871 120.472C129.041 118.33 129.877 116.333 130.593 115.155L130.12 114.882C129.37 116.116 128.501 118.191 128.322 120.43C128.144 122.675 128.66 125.109 130.718 127.003C133.105 129.2 133.37 131.704 132.738 134.041C132.099 136.396 130.549 138.571 129.319 140.036C128.079 141.512 126.911 143.327 127.058 145.183C127.207 147.075 128.703 148.879 132.453 150.367C132.741 150.482 133.01 150.599 133.26 150.72C134.614 151.371 135.407 152.096 135.821 152.842C136.232 153.583 136.287 154.377 136.102 155.202C135.727 156.879 134.386 158.625 133.164 160.163L133.01 160.357C132.775 160.652 132.547 160.939 132.337 161.212C131.08 162.845 130.492 164.243 130.529 165.666C130.556 166.726 130.928 167.771 131.578 168.909C130.687 168.247 129.794 167.517 129.06 166.684C128.015 165.496 127.314 164.12 127.408 162.459C127.452 161.676 127.673 160.82 128.13 159.88C128.753 158.599 129.195 157.451 129.373 156.445C129.552 155.436 129.469 154.543 129.011 153.8C128.554 153.056 127.748 152.506 126.577 152.126C125.574 151.8 124.287 151.592 122.677 151.497C122.799 151.666 122.881 151.851 122.931 152.051C124.376 152.151 125.519 152.347 126.403 152.634C127.5 152.99 128.172 153.479 128.54 154.075C128.907 154.671 128.996 155.42 128.831 156.353C128.666 157.29 128.248 158.386 127.633 159.65C127.155 160.636 126.912 161.551 126.86 162.405C126.571 163.572 126.142 165.439 125.784 167.285C125.743 167.498 125.702 167.711 125.663 167.923C125.671 167.973 125.677 168.022 125.682 168.071C125.723 168.473 125.832 168.844 125.999 169.189C126.094 168.61 126.205 168 126.324 167.384C126.545 166.247 126.793 165.101 127.018 164.118C127.297 165.222 127.897 166.185 128.643 167.033C129.742 168.281 131.174 169.299 132.395 170.164L132.785 169.799C131.694 168.204 131.111 166.916 131.078 165.653C131.046 164.397 131.558 163.117 132.777 161.534C132.865 161.419 132.956 161.301 133.051 161.182C133.017 162.111 133.044 163.322 133.205 164.61C133.422 166.357 133.887 168.268 134.793 169.812C135.604 171.196 135.284 172.83 134.484 174.368C134.483 174.369 134.482 174.371 134.481 174.372C134.641 174.69 134.627 175.039 134.501 175.428C134.67 175.163 134.829 174.889 134.974 174.61C135.806 173.012 136.219 171.163 135.27 169.546C134.416 168.089 133.964 166.258 133.751 164.546C133.544 162.883 133.564 161.353 133.648 160.429C134.84 158.927 136.239 157.109 136.64 155.316C136.845 154.395 136.792 153.465 136.304 152.587C135.832 151.735 134.967 150.961 133.608 150.29C132.368 146.48 133.215 143.036 134.797 140.26C136.346 137.544 138.593 135.48 140.245 134.373C142.46 136.065 143.948 138.116 144.6 140.087C145.266 142.098 145.057 144.002 143.9 145.386C141.948 147.359 141.028 149.227 140.669 151.01C140.312 152.788 140.517 154.461 140.775 156.023C140.815 156.26 140.855 156.494 140.895 156.725C141.12 158.032 141.33 159.249 141.241 160.428C141.138 161.792 140.634 163.103 139.242 164.394C137.763 165.766 137.043 167.103 136.764 168.441C136.487 169.77 136.65 171.077 136.892 172.373C136.95 172.682 137.011 172.99 137.073 173.298C137.536 175.6 138 177.916 136.708 180.549C135.455 183.102 135.814 185.489 136.763 187.419C137.081 188.064 137.464 188.66 137.877 189.196C138.149 189.257 138.431 189.313 138.721 189.37Z" fill="#1C1C2A"/>
<path d="M115.712 122.865C118.432 121.032 121.318 119.657 122.037 121.204C123.403 124.145 126.135 122.274 126.954 120.135C127.774 117.997 128.047 118.531 129.413 121.739C129.998 123.112 130.382 122.428 130.91 121.489C131.614 120.235 132.573 118.529 134.604 120.669C136.315 122.472 137.9 120.675 139.388 118.987C140.988 117.172 142.477 115.484 143.892 118.531C144.813 120.512 145.485 122.644 146.118 124.653C146.738 126.62 147.32 128.467 148.061 129.937C147.914 129.232 148.315 129.273 148.536 129.49C149.902 130.827 150.175 129.757 150.449 128.421C150.667 127.352 150.904 124.211 150.995 122.775C146.829 119.795 143.669 115.383 142.174 113.14C136.71 114.478 135.697 114.521 135.423 110.778C130.233 111.848 119.032 115.744 115.753 122.775C115.74 122.804 115.726 122.835 115.712 122.865Z" fill="#1C1C2A"/>
<path d="M147.982 130.525C147.433 129.189 147.982 129.189 148.256 129.456C148.877 130.06 149.273 130.173 149.545 129.99C151.402 131.772 155.663 135.763 157.858 137.473C160.053 139.183 165.723 141.036 168.284 141.748C167.357 139.878 165.59 135.228 165.934 131.594C166.168 130.881 166.967 129.669 168.284 130.525C169.93 131.594 170.204 133.197 171.027 134.533C171.851 135.869 172.673 135.602 173.497 135.602C174.32 135.602 177.612 136.404 179.258 138.542C179.715 138.898 181.014 139.718 182.55 140.145C184.471 140.68 186.94 143.352 186.117 146.024C185.294 148.697 182.002 151.369 180.356 154.309C178.709 157.248 176.24 166.067 167.735 167.671C166.253 167.95 164.888 168.175 163.62 168.347C157.605 169.159 153.754 168.761 149.902 167.18C150.272 166.121 150.208 164.734 149.353 162.86C147.158 158.05 154.017 154.843 155.663 150.033C157.31 145.223 153.469 139.343 151.822 137.206C150.176 135.068 148.53 131.861 147.982 130.525Z" fill="#8CB9FF"/>
<path d="M160.281 138.692C161.838 140.857 164.872 143.88 168.652 144.238C174.265 144.771 175.067 139.713 174.532 137.317C172.127 139.181 167.85 140.778 168.117 137.051C168.154 136.532 168.196 136.039 168.237 135.57C168.427 133.355 168.573 131.666 167.915 130.278C166.752 129.674 166.043 130.791 165.827 131.462C165.492 135.082 167.214 139.714 168.117 141.577C166.29 141.057 162.838 139.928 160.281 138.692Z" fill="#7EAEFA"/>
<path d="M157.901 167.722C157.104 167.516 156.322 167.273 155.539 166.992C155.963 165.934 155.89 164.548 154.91 162.674C153.371 159.73 155.721 157.386 158.207 154.907C159.779 153.339 161.406 151.717 162.137 149.853C163.476 146.438 161.645 142.484 159.795 139.714C162.145 141.023 165.781 142.942 168.42 143.977C172.505 145.58 171.563 148.518 166.221 145.847C164.022 144.778 164.022 148.251 168.42 150.121C172.819 151.99 180.988 151.723 183.816 145.313C186.644 138.902 190.1 139.703 187.901 145.847C185.701 151.99 181.302 158.668 177.846 160.805C176.172 161.84 173.761 162.123 171.291 162.413C168.662 162.721 165.966 163.037 164.022 164.277C161.13 166.121 160.318 167.621 160.255 168.212C159.761 168.133 159.276 168.041 158.798 167.936L157.901 167.722Z" fill="#7EAEFA"/>
<path opacity="0.5" d="M149.86 166.18C149.989 165.239 149.799 164.078 149.116 162.622C147.738 159.687 149.841 157.35 152.066 154.879C153.473 153.316 154.929 151.698 155.582 149.841C155.68 149.564 155.758 149.284 155.82 149.001L158.956 151.971C160.924 153.835 167.672 154.1 171.045 153.302C168.796 154.634 165.985 154.899 160.643 154.1C155.301 153.301 153.614 155.698 156.707 157.295C159.8 158.893 168.796 156.496 171.889 154.366C169.089 158.946 163.754 159.599 159.848 160.077C159.44 160.127 159.047 160.175 158.675 160.225C157.303 160.411 155.795 160.273 154.447 160.15C151.929 159.92 149.972 159.741 150.522 161.823C151.127 164.118 150.418 165.583 149.86 166.18Z" fill="#70A2F2"/>
<path d="M153.014 86.2987C154.752 80.0976 160.077 79.973 162.522 80.6859C163.88 80.9411 162.794 77.746 167.412 77.2114C172.031 76.6768 175.019 79.6172 176.378 81.7555C177.736 83.8938 178.822 86.0321 180.996 87.9029C182.082 91.1103 185.614 94.5852 186.429 95.3869C186.429 96.1889 186.744 101.502 186.744 103.907C191.362 100.432 189.418 97.2581 190.505 94.3177C191.374 91.9657 190.686 90.4866 190.233 90.0411C190.324 88.7937 190.396 85.925 189.961 84.4283C189.418 82.5571 187.516 82.2901 186.701 82.2901C187.244 80.9534 186.701 79.6172 185.886 79.0822C185.071 78.5477 184.256 77.2114 183.169 75.0731C182.082 72.9348 177.736 69.4601 175.834 68.6582C173.933 67.8563 173.933 66.5199 173.389 65.9853C166.326 59.8377 160.077 62.5106 158.719 63.0452C157.36 63.5798 156.546 63.0452 156.002 62.778C145.407 56.3631 138.615 65.4508 136.713 68.1237C125.303 72.9349 121.228 79.0826 122.043 87.6358C122.858 96.1889 120.413 99.3964 118.511 101.268C116.61 103.138 117.153 105.01 118.783 107.148C121.771 111.424 116.61 111.959 114.708 113.028C112.806 114.097 114.165 117.037 113.35 118.374C112.534 119.71 112.806 122.383 114.98 124.521C118.24 118.374 127.477 115.701 132.638 114.632C137.8 113.563 142.69 106.346 146.493 103.138C150.297 99.9309 150.84 94.0502 153.014 86.2987Z" fill="#2B2B39"/>
<path opacity="0.5" d="M145.873 103.73C146.295 97.2474 147.558 89.5154 150.186 83.6638C151.803 80.0643 153.92 77.2151 156.637 75.7829C159.298 74.3802 162.588 74.3106 166.662 76.3318C166.61 76.7327 166.504 77.1124 166.361 77.4671C166.557 77.4137 166.766 77.3664 166.992 77.3261C167.108 76.9715 167.19 76.5957 167.225 76.2013C167.346 74.8583 166.928 73.3318 165.567 71.7337C164.105 70.0157 162.602 68.698 161.264 67.5252C160.853 67.1658 160.459 66.8199 160.086 66.4803C158.94 65.4377 157.995 64.4528 157.373 63.2996C157.108 63.2659 156.877 63.1928 156.672 63.1086C157.127 64.1073 157.795 64.9678 158.595 65.7953C157.293 65.28 155.673 64.8089 153.933 64.5809C150.476 64.128 146.491 64.6297 143.598 67.718C140.565 70.9567 138.026 75.597 135.975 80.3815C133.922 85.17 132.35 90.1228 131.257 94.0014C130.172 97.8481 128.344 101.754 125.915 104.792C124.107 107.052 121.979 108.818 119.588 109.735C119.554 109.971 119.479 110.186 119.37 110.384C122.052 109.472 124.398 107.556 126.345 105.121C128.828 102.016 130.683 98.0423 131.782 94.1435C132.872 90.2769 134.438 85.3475 136.478 80.5881C138.521 75.8239 141.031 71.2502 144.001 68.0789C146.379 65.5398 149.555 64.8359 152.561 64.9909C149.643 66.0894 144.708 68.9555 141.114 74.4312C138.56 78.3221 137.06 83.983 135.569 89.6106L135.451 90.0572C133.912 95.861 132.353 101.58 129.658 105.405C127.513 108.448 124.516 110.312 121.631 111.404C119.191 112.328 116.841 112.695 115.177 112.761C114.964 112.85 114.769 112.941 114.6 113.035C114.499 113.092 114.406 113.154 114.322 113.221L114.32 113.302C116.038 113.347 118.871 113.021 121.828 111.902C124.787 110.782 127.885 108.862 130.107 105.709C132.869 101.789 134.448 95.9665 135.979 90.1913L136.083 89.7992C137.586 84.1267 139.067 78.5374 141.573 74.7198C145.651 68.5068 151.485 65.7386 153.913 65.1173C155.714 65.3587 157.379 65.8672 158.673 66.4048C155.372 66.5944 149.986 68.3518 147.637 74.4817C146.835 76.5754 145.758 80.0034 144.491 84.032L144.396 84.3373C143.086 88.5024 141.578 93.2893 139.96 97.9257C138.341 102.563 136.613 107.041 134.868 110.591C134.103 112.146 133.338 113.518 132.578 114.645C132.589 114.642 132.6 114.64 132.611 114.638C132.861 114.586 133.111 114.521 133.359 114.441C134.029 113.392 134.697 112.171 135.36 110.822C137.119 107.244 138.855 102.742 140.476 98.0984C142.098 93.4533 143.609 88.6588 144.917 84.4945L145.007 84.2079C146.278 80.1638 147.352 76.7474 148.148 74.6692C150.683 68.0547 156.904 66.76 159.785 66.9359C160.149 67.2654 160.528 67.5975 160.918 67.9393C162.251 69.1082 163.713 70.3906 165.148 72.0757C166.287 73.4126 166.697 74.6601 166.699 75.7531C162.598 73.776 159.184 73.8337 156.378 75.3128C153.505 76.827 151.324 79.8036 149.687 83.4485C146.943 89.5548 145.677 97.6463 145.293 104.281C145.489 104.09 145.682 103.906 145.873 103.73Z" fill="#1C1C2A"/>
<path opacity="0.5" d="M119.197 107.982C122.35 106.853 124.199 104.118 125.432 100.773C126.189 98.7162 126.721 96.4131 127.182 94.081C127.366 93.1531 127.538 92.2233 127.708 91.3018C127.968 89.8979 128.223 88.5135 128.512 87.1833C129.86 80.9607 133.884 72.7798 136.359 68.3113C136.083 68.4293 135.812 68.548 135.544 68.6676C133.044 73.2617 129.283 81.0522 127.978 87.0726C127.689 88.4072 127.429 89.8092 127.168 91.2214C126.998 92.1417 126.827 93.0663 126.646 93.9795C126.187 96.3048 125.661 98.5753 124.918 100.592C123.701 103.895 121.92 106.472 118.926 107.509C119.029 107.672 119.119 107.83 119.197 107.982Z" fill="#1C1C2A"/>
<path d="M186.453 96.1045C186.849 96.1355 187.249 96.1558 187.646 96.167C188.45 96.1897 189.256 96.1746 190.029 96.1348C190.05 95.954 190.075 95.7745 190.105 95.5962C189.314 95.6392 188.487 95.6567 187.662 95.6336C187.248 95.6221 186.837 95.6002 186.434 95.5671C186.437 95.7037 186.444 95.8856 186.453 96.1045Z" fill="#3A0A44"/>
<path d="M181.221 88.4973C184.737 90.2184 188.18 90.6113 190.456 90.5265C190.354 90.3354 190.246 90.1909 190.148 90.0946L190.151 90.0564L190.155 90.0011C187.785 90.0445 184.213 89.5569 180.653 87.5989C180.764 87.7012 180.877 87.8027 180.994 87.903C181.061 88.1004 181.137 88.2986 181.221 88.4973Z" fill="#3A0A44"/>
<path opacity="0.5" d="M162.601 69.1014C163.824 67.7242 167.624 65.6896 173.866 66.9273C173.965 67.1256 174.08 67.3374 174.235 67.5504C167.855 66.1377 164.104 68.2186 163.009 69.4529L162.601 69.1014Z" fill="#1C1C2A"/>
<path opacity="0.5" d="M184.681 82.3678C185.367 82.4939 186.06 82.3996 186.752 81.9824C186.72 82.1058 186.679 82.2304 186.628 82.3546C186.765 82.3546 186.933 82.3622 187.121 82.3841C186.298 82.9079 185.444 83.0508 184.582 82.8924C183.369 82.6695 182.188 81.8575 181.093 80.8118C179.385 79.181 177.8 76.8919 176.551 75.0883C176.199 74.5788 175.873 74.1084 175.578 73.7024C174.584 72.3297 172.912 72.0556 171.136 72.3232C169.365 72.59 167.571 73.3875 166.462 74.0431L166.184 73.5853C167.332 72.9063 169.193 72.0758 171.054 71.7955C172.91 71.516 174.848 71.7756 176.019 73.3923C176.326 73.8158 176.661 74.2994 177.021 74.8185C178.268 76.6184 179.806 78.8403 181.47 80.4281C182.54 81.4507 183.627 82.1735 184.681 82.3678Z" fill="#1C1C2A"/>
<path d="M166.749 69.9523C168.381 68.6968 172.464 67.208 175.729 71.2976C178.995 75.3875 182.17 78.0245 183.35 78.8317M170.559 75.3341C173.008 75.9618 178.287 78.0782 179.812 81.5221C181.717 85.8269 185.255 88.5177 187.976 88.2486M185.799 90.939C186.253 91.6567 187.541 92.8763 189.065 92.0153M165.388 64.5717C166.567 64.3924 169.252 64.195 170.559 64.8408" stroke="#151523" stroke-width="0.8"/>
<path d="M160.28 69.8365C156.666 69.7474 148.679 72.403 145.642 83.7382M144.829 74.3814C142.751 78.213 138.215 87.481 136.697 93.8971C134.799 101.917 133.444 112.077 119.89 114.215M122.601 100.581C123.866 98.6203 126.233 93.5229 125.583 88.8177C124.77 82.9362 125.854 77.3222 130.733 74.1139M152.962 63.1529C148.172 62.7965 138.053 64.4362 135.884 73.8465C133.715 83.257 129.017 95.2337 126.938 100.046" stroke="#151523" stroke-width="0.8"/>
</g>
<path d="M398.891 92.1301H322.037C318.642 92.1301 315.89 94.8818 315.89 98.2767V115.699C315.89 119.094 318.642 121.846 322.037 121.846H384.668L403.839 128.077L398.567 121.846H398.891C402.285 121.846 405.037 119.094 405.037 115.699V98.2767C405.037 94.8818 402.285 92.1301 398.891 92.1301Z" fill="#FFBE56"/>
<path fill-rule="evenodd" clip-rule="evenodd" d="M336.499 109.385C338.087 109.385 339.375 108.097 339.375 106.509C339.375 104.921 338.087 103.633 336.499 103.633C334.911 103.633 333.624 104.921 333.624 106.509C333.624 108.097 334.911 109.385 336.499 109.385ZM352.795 109.385C354.383 109.385 355.671 108.097 355.671 106.509C355.671 104.921 354.383 103.633 352.795 103.633C351.207 103.633 349.919 104.921 349.919 106.509C349.919 108.097 351.207 109.385 352.795 109.385ZM371.487 106.509C371.487 108.097 370.2 109.385 368.611 109.385C367.023 109.385 365.736 108.097 365.736 106.509C365.736 104.921 367.023 103.633 368.611 103.633C370.2 103.633 371.487 104.921 371.487 106.509ZM384.428 109.385C386.016 109.385 387.304 108.097 387.304 106.509C387.304 104.921 386.016 103.633 384.428 103.633C382.84 103.633 381.552 104.921 381.552 106.509C381.552 108.097 382.84 109.385 384.428 109.385Z" fill="white"/>
<path d="M283.489 467.3C283.489 519.097 325.478 561.086 377.273 561.086C429.07 561.086 471.061 519.097 471.061 467.3C471.061 415.504 429.07 373.515 377.273 373.515C325.478 373.515 283.489 415.504 283.489 467.3Z" fill="white"/>
<path d="M377.273 560.086C326.03 560.086 284.489 518.545 284.489 467.3C284.489 416.056 326.03 374.515 377.273 374.515C428.517 374.515 470.061 416.056 470.061 467.3C470.061 518.544 428.517 560.086 377.273 560.086Z" stroke="#2773D9" stroke-opacity="0.6" stroke-width="2"/>
<path d="M395.127 405.696C385.607 425.434 369.261 413.663 365.508 405.694C372.956 405.693 370.568 390.597 369.499 383.049H391.498C391.083 394.674 393.743 402.991 395.127 405.696Z" fill="#FCC4AC"/>
<path d="M395.127 405.696C385.607 425.434 369.261 413.663 365.508 405.694C372.956 405.693 370.568 390.597 369.499 383.049H391.498C391.083 394.674 393.743 402.991 395.127 405.696Z" fill="url(#paint1_linear_5_1388)"/>
<path d="M345.07 415.418C344.957 447.685 336.144 533.023 334.837 546.304C334.148 553.331 351.295 559.471 370.497 560.845C395.442 562.63 416.307 554.217 420.809 550.381C422.05 512.027 424.016 428.309 424.016 421.195C414.685 414.546 401.322 408.322 395.127 405.697C382.833 413.314 374.042 410.712 368.269 404.818C359.592 406.438 349.121 412.948 345.07 415.418Z" fill="#307FE2"/>
<path d="M345.07 415.418C344.957 447.685 336.144 533.023 334.837 546.304C334.148 553.331 351.295 559.471 370.497 560.845C395.442 562.63 416.307 554.217 420.809 550.381C422.05 512.027 424.016 428.309 424.016 421.195C414.685 414.546 401.322 408.322 395.127 405.697C382.833 413.314 374.042 410.712 368.269 404.818C359.592 406.438 349.121 412.948 345.07 415.418Z" fill="url(#paint2_linear_5_1388)"/>
<path d="M345.07 415.418C344.957 447.685 336.144 533.023 334.837 546.304C334.148 553.331 351.295 559.471 370.497 560.845C395.442 562.63 416.307 554.217 420.809 550.381C422.05 512.027 424.016 428.309 424.016 421.195C414.685 414.546 401.322 408.322 395.127 405.697C382.833 413.314 374.042 410.712 368.269 404.818C359.592 406.438 349.121 412.948 345.07 415.418Z" fill="#2773D9"/>
<path opacity="0.35" d="M367.044 405.075C367.193 405.04 367.341 405.007 367.484 404.975C368.321 410.35 369.146 417.563 369.432 424.999C369.788 434.35 369.283 444.087 366.83 450.971C363.807 459.476 363.807 469.806 364.567 479.422C364.888 483.533 365.351 487.507 365.779 491.149V491.149V491.163C365.85 491.773 365.921 492.374 365.987 492.964C366.462 497.077 366.848 500.698 366.848 503.493C366.848 504.1 366.848 504.694 366.848 505.279C366.872 510.043 366.89 514.171 365.565 519.06C364.086 524.551 360.921 530.99 354.221 540.397C353.389 541.576 353.193 543.24 353.473 545.204C353.746 547.162 354.482 549.383 355.468 551.639C356.579 554.191 357.998 556.774 359.4 559.056C359.204 559.017 359.002 558.977 358.806 558.938C357.464 556.729 356.122 554.26 355.058 551.819C354.067 549.544 353.312 547.281 353.027 545.266C352.748 543.255 352.926 541.454 353.853 540.139V540.138C360.54 530.752 363.67 524.362 365.132 518.943C366.438 514.116 366.42 510.049 366.403 505.281V505.279C366.403 504.695 366.397 504.1 366.397 503.493C366.397 500.729 366.017 497.134 365.541 493.015C365.476 492.423 365.405 491.82 365.333 491.207V491.202V491.201C364.906 487.561 364.443 483.577 364.116 479.457C363.356 469.83 363.356 459.421 366.408 450.821C368.826 444.021 369.337 434.357 368.98 425.016C368.701 417.612 367.881 410.43 367.044 405.075Z" fill="white"/>
<path opacity="0.35" d="M338.415 551.937C338.629 552.085 338.849 552.231 339.08 552.376C338.201 550.288 337.548 548.247 337.293 546.43C337.019 544.466 337.209 542.803 338.041 541.624C344.74 532.216 347.906 525.777 349.391 520.287C350.709 515.397 350.692 511.269 350.674 506.505V506.496C350.668 505.915 350.668 505.323 350.668 504.719C350.668 501.924 350.288 498.303 349.813 494.19C349.741 493.6 349.67 492.999 349.599 492.389V492.375V492.375C349.171 488.733 348.708 484.759 348.387 480.648C347.627 471.032 347.627 460.703 350.656 452.197C353.103 445.313 353.608 435.576 353.251 426.225C353.05 420.96 352.58 415.807 352.022 411.338C351.88 411.416 351.737 411.494 351.6 411.572C352.147 415.987 352.604 421.06 352.8 426.242C353.156 435.583 352.646 445.247 350.228 452.047C347.176 460.647 347.176 471.057 347.936 480.683C348.262 484.804 348.726 488.787 349.153 492.427V492.428V492.433C349.225 493.046 349.296 493.649 349.367 494.241C349.842 498.36 350.217 501.955 350.217 504.719C350.217 505.326 350.222 505.919 350.222 506.502V506.507C350.24 511.275 350.258 515.342 348.957 520.17C347.49 525.589 344.36 531.978 337.673 541.364V541.365C336.746 542.68 336.568 544.482 336.847 546.492C337.085 548.179 337.655 550.041 338.415 551.937Z" fill="white"/>
<path opacity="0.35" d="M375.566 561.444C374.444 559.521 373.351 557.447 372.454 555.391C371.462 553.116 370.708 550.853 370.429 548.838C370.144 546.828 370.322 545.026 371.249 543.711C377.936 534.325 381.072 527.935 382.533 522.516C383.834 517.688 383.816 513.621 383.798 508.853V508.851C383.798 508.267 383.792 507.673 383.792 507.066C383.792 504.302 383.418 500.707 382.943 496.588C382.872 495.994 382.801 495.389 382.729 494.775C382.308 491.134 381.838 487.15 381.518 483.03C380.757 473.403 380.752 462.993 383.81 454.393C386.228 447.594 386.732 437.93 386.382 428.589C386.121 421.813 385.414 415.222 384.654 410.047C384.802 410.02 384.951 409.99 385.093 409.959C385.853 415.152 386.572 421.768 386.827 428.572C387.184 437.923 386.679 447.659 384.232 454.544C381.209 463.049 381.203 473.378 381.963 482.994C382.29 487.105 382.753 491.079 383.175 494.72C383.246 495.336 383.317 495.941 383.389 496.537C383.864 500.65 384.244 504.271 384.244 507.066C384.244 507.672 384.244 508.267 384.25 508.852C384.268 513.616 384.285 517.743 382.967 522.633C381.482 528.124 378.322 534.563 371.617 543.97C370.785 545.149 370.595 546.812 370.868 548.776C371.148 550.735 371.884 552.955 372.864 555.212C373.797 557.352 374.949 559.514 376.119 561.502C375.935 561.483 375.751 561.464 375.566 561.444Z" fill="white"/>
<path opacity="0.35" d="M394.145 562.615C392.779 560.38 391.412 557.872 390.331 555.391C389.34 553.116 388.585 550.853 388.3 548.838C388.021 546.827 388.199 545.026 389.126 543.711V543.71C395.813 534.324 398.944 527.934 400.411 522.516C401.711 517.688 401.693 513.621 401.676 508.853C401.676 508.268 401.67 507.674 401.67 507.065C401.67 504.301 401.296 500.706 400.82 496.588C400.749 495.994 400.678 495.389 400.607 494.775V494.774C400.185 491.133 399.716 487.15 399.395 483.03C398.629 473.402 398.629 462.993 401.687 454.393C404.105 447.594 404.61 437.929 404.259 428.588C403.98 421.329 403.184 414.282 402.371 408.962C402.531 409.039 402.691 409.116 402.858 409.195C403.659 414.494 404.431 421.429 404.705 428.571C405.061 437.923 404.556 447.659 402.109 454.543C399.086 463.048 399.08 473.378 399.84 482.994C400.167 487.106 400.63 491.08 401.052 494.721V494.729C401.123 495.341 401.195 495.944 401.266 496.536C401.741 500.649 402.121 504.27 402.121 507.065C402.121 507.672 402.121 508.266 402.127 508.85V508.852C402.145 513.616 402.163 517.743 400.844 522.633C399.359 528.123 396.2 534.563 389.494 543.969C388.663 545.148 388.472 546.812 388.746 548.776C389.025 550.734 389.761 552.955 390.741 555.212C391.852 557.761 393.271 560.343 394.673 562.624C394.495 562.621 394.323 562.618 394.145 562.615Z" fill="white"/>
<path opacity="0.35" d="M412.284 561.718C411.108 559.719 409.95 557.545 409.012 555.391C408.02 553.116 407.266 550.853 406.987 548.838C406.701 546.827 406.886 545.026 407.806 543.711L407.812 543.71C414.5 534.324 417.63 527.934 419.091 522.516C420.392 517.688 420.38 513.621 420.362 508.852C420.356 508.268 420.356 507.674 420.356 507.065C420.356 504.301 419.976 500.706 419.501 496.588C419.429 495.994 419.364 495.391 419.293 494.777V494.774C418.865 491.133 418.402 487.15 418.075 483.029C417.315 473.402 417.309 462.993 420.368 454.393C422.785 447.594 423.296 437.929 422.94 428.588C422.827 425.682 422.637 422.809 422.387 420.068C422.553 420.177 422.708 420.286 422.868 420.394C423.1 423.032 423.284 425.786 423.385 428.571C423.741 437.923 423.237 447.659 420.79 454.543C417.766 463.048 417.76 473.378 418.521 482.994C418.847 487.106 419.311 491.08 419.738 494.721C419.81 495.336 419.875 495.941 419.946 496.536C420.421 500.649 420.801 504.27 420.801 507.065C420.801 507.672 420.807 508.266 420.807 508.851C420.825 513.616 420.843 517.743 419.524 522.633C418.04 528.123 414.88 534.563 408.174 543.969C407.349 545.148 407.153 546.812 407.432 548.775C407.705 550.734 408.442 552.955 409.428 555.212C410.378 557.401 411.56 559.615 412.76 561.641C412.605 561.667 412.445 561.693 412.284 561.718Z" fill="white"/>
<path d="M356.159 351.315C355.862 358.074 356.159 374.592 356.159 386.692C356.159 407.144 386.812 391.285 391.498 383.048C400.728 366.823 390.524 352.191 388.576 351.315H356.159Z" fill="url(#paint3_linear_5_1388)"/>
<path d="M356.159 351.315C355.862 358.074 356.159 374.592 356.159 386.692C356.159 407.144 386.812 391.285 391.498 383.048C400.728 366.823 390.524 352.191 388.576 351.315H356.159Z" fill="#FCC4AC"/>
<path d="M391.985 345.353C398.684 344.081 397.704 349.506 397.318 350.389C413.325 354.799 393.867 387.132 391.48 387.805L391.462 381.771C391.438 379.367 396.142 376.917 393.57 372.692C390.155 367.083 389.413 378.104 389.413 378.104C386.989 376.829 386.11 367.682 388.367 362.507C380.444 366.002 375.247 359.491 374.244 357.63C368.655 360.88 360.09 359.575 357.334 356.899C356.895 358.392 356.022 361.17 356.022 366.036C349.631 362.595 346.335 349.891 349.714 351.05C349.281 325.752 371.607 334.848 374.244 337.854C376.875 340.861 377.498 340.019 377.843 339.793C387.251 335.201 391.824 339.752 390.945 342.651C390.06 345.551 391.723 345.411 391.985 345.353Z" fill="#6E000E"/>
<path d="M259.676 458.48C254.887 458.906 250.726 456.048 251.658 455.725C264.119 451.401 280.872 456.786 290.556 459.758C293.955 466.626 288.314 474.237 285.069 477.185C283.434 475.533 280.051 473.398 277.833 473.398C266.561 472.778 255.712 488.952 244.688 480.901C235.869 474.46 251.006 463.27 259.676 458.48Z" fill="#F4B88E"/>
<path d="M259.676 458.48C254.887 458.906 250.726 456.048 251.658 455.725C264.119 451.401 280.872 456.786 290.556 459.758C293.955 466.626 288.314 474.237 285.069 477.185C283.434 475.533 280.051 473.398 277.833 473.398C266.561 472.778 255.712 488.952 244.688 480.901C235.869 474.46 251.006 463.27 259.676 458.48Z" fill="#FCC4AC"/>
<path d="M345.069 415.413C346.239 437.048 342.693 474.312 339.997 493.274C337.146 500.42 276.471 478.17 278.083 473.868C279.696 469.566 283.734 463.261 285.728 458.197C287.096 454.723 322.019 471.09 323.31 465.219C324.602 459.348 325.596 426.355 345.069 415.413Z" fill="#307FE2"/>
<path d="M345.069 415.413C346.239 437.048 342.693 474.312 339.997 493.274C337.146 500.42 276.471 478.17 278.083 473.868C279.696 469.566 283.734 463.261 285.728 458.197C287.096 454.723 322.019 471.09 323.31 465.219C324.602 459.348 325.596 426.355 345.069 415.413Z" fill="url(#paint4_linear_5_1388)"/>
<path d="M345.069 415.413C346.239 437.048 342.693 474.312 339.997 493.274C337.146 500.42 276.471 478.17 278.083 473.868C279.696 469.566 283.734 463.261 285.728 458.197C287.096 454.723 322.019 471.09 323.31 465.219C324.602 459.348 325.596 426.355 345.069 415.413Z" fill="#2773D9"/>
<path opacity="0.35" fill-rule="evenodd" clip-rule="evenodd" d="M342.167 417.07C337.789 428.859 336.572 445.801 338.55 458.649C339.536 465.058 340.064 470.686 339.215 475.294C338.371 479.885 336.162 483.456 331.658 485.774C329.99 486.633 328.448 486.526 326.823 485.933C325.614 485.492 324.381 484.789 323.025 484.019C322.537 483.741 322.032 483.454 321.507 483.167C317.561 481.009 312.62 478.951 305.243 481.221C299.493 482.99 293.784 481.15 289.233 478.289C284.676 475.426 281.328 471.57 280.301 469.394L279.895 469.585C280.968 471.861 284.388 475.775 288.994 478.67C293.604 481.567 299.452 483.473 305.375 481.651C312.589 479.43 317.398 481.431 321.291 483.561C321.797 483.837 322.291 484.118 322.773 484.392C324.14 485.17 325.422 485.899 326.669 486.355C328.376 486.978 330.055 487.105 331.864 486.173C336.512 483.782 338.793 480.081 339.654 475.375C340.521 470.685 339.975 464.99 338.989 458.581C337.023 445.796 338.241 428.933 342.588 417.226L342.167 417.07ZM332.863 430.146C333.006 429.387 333.138 428.689 333.252 428.061L332.811 427.98C332.697 428.605 332.566 429.301 332.423 430.059C331.651 434.151 330.544 440.019 329.963 446.023C329.275 453.127 329.317 460.477 331.557 465.314C334.19 470.995 333.125 474.924 330.752 476.863C328.362 478.815 324.559 478.832 321.535 476.513C319.898 475.258 317.297 473.722 313.919 473.268C310.535 472.813 306.392 473.448 301.68 476.503C300.475 477.284 298.58 477.419 296.415 477C294.261 476.583 291.884 475.625 289.754 474.282C287.624 472.938 285.756 471.216 284.605 469.282C283.456 467.352 283.025 465.217 283.744 463.019L283.317 462.88C282.549 465.226 283.019 467.495 284.22 469.512C285.417 471.523 287.344 473.292 289.514 474.661C291.686 476.031 294.115 477.012 296.33 477.441C298.535 477.867 300.573 477.756 301.924 476.879C306.552 473.879 310.588 473.273 313.859 473.713C317.135 474.153 319.664 475.644 321.262 476.869C324.426 479.295 328.462 479.313 331.036 477.21C333.625 475.095 334.647 470.915 331.965 465.125C329.78 460.409 329.723 453.17 330.41 446.067C330.989 440.085 332.091 434.239 332.863 430.146Z" fill="white"/>
<path d="M285.728 458.197C283.734 463.262 279.696 469.566 278.083 473.868C277.808 474.605 279.358 475.868 282.132 477.42C286.586 474.122 290.437 463.501 291.805 458.603C288.42 457.687 286.064 457.345 285.728 458.197Z" fill="#105CC1"/>
<path d="M410.989 563.889C413.103 562.907 420.237 548.698 424.014 538.816L415.449 531.952C403.405 535.994 398.415 548.047 401.439 547.551C404.462 547.054 404.741 548.687 402.139 552.118C392.144 565.275 408.079 565.243 410.989 563.889Z" fill="#FCC4AC"/>
<path d="M449.303 490.191C454.631 472.628 437.312 431.833 424.014 421.195C424.014 425.539 423.182 445.639 422.731 472.326C430.363 486.001 411.547 527.601 409.789 531.11C408.025 534.619 423.396 547.735 425.908 542.659C428.421 537.584 443.311 509.938 449.303 490.191Z" fill="#307FE2"/>
<path d="M449.303 490.191C454.631 472.628 437.312 431.833 424.014 421.195C424.014 425.539 423.182 445.639 422.731 472.326C430.363 486.001 411.547 527.601 409.789 531.11C408.025 534.619 423.396 547.735 425.908 542.659C428.421 537.584 443.311 509.938 449.303 490.191Z" fill="url(#paint5_linear_5_1388)"/>
<path d="M449.303 490.191C454.631 472.628 437.312 431.833 424.014 421.195C424.014 425.539 423.182 445.639 422.731 472.326C430.363 486.001 411.547 527.601 409.789 531.11C408.025 534.619 423.396 547.735 425.908 542.659C428.421 537.584 443.311 509.938 449.303 490.191Z" fill="#2773D9"/>
<path opacity="0.35" fill-rule="evenodd" clip-rule="evenodd" d="M425.906 432.841C425.187 431.951 424.528 431.137 423.958 430.41L423.601 430.687C424.177 431.422 424.848 432.244 425.573 433.139C427.907 436.019 430.859 439.654 433.353 443.586C436.632 448.746 439.091 454.359 438.402 459.386C437.951 462.632 438.657 466.019 439.81 469.401C440.605 471.744 441.615 474.103 442.607 476.419C443.047 477.441 443.486 478.455 443.896 479.455C445.244 482.734 446.337 485.875 446.515 488.763C446.687 491.638 445.951 494.257 443.629 496.518C439.162 500.876 438.242 504.819 437.357 508.582C437.244 509.074 437.131 509.562 437.006 510.048C436.484 512.147 435.83 514.199 434.423 516.274C433.015 518.35 430.847 520.463 427.278 522.665C425.888 523.52 424.629 525.132 423.554 527.056C422.473 528.985 421.558 531.254 420.875 533.455C420.186 535.655 419.723 537.796 419.545 539.472C419.455 540.309 419.432 541.039 419.497 541.606C419.515 541.784 419.545 541.95 419.586 542.099C417.977 541.183 416.284 539.929 414.769 538.574C413.95 534.855 414.324 530.392 415.732 526.466C417.145 522.513 419.58 519.141 422.829 517.603C425.846 516.176 427.438 514.381 428.293 512.336C429.137 510.305 429.244 508.049 429.321 505.73C429.327 505.636 429.327 505.542 429.333 505.447C429.404 503.206 429.481 500.903 430.17 498.616C430.883 496.242 432.255 493.878 434.981 491.642C437.689 489.424 438.604 487.174 438.432 484.889C438.271 482.63 437.048 480.378 435.599 478.142C435.141 477.436 434.66 476.733 434.185 476.029C433.134 474.485 432.077 472.941 431.263 471.374C430.075 469.101 429.422 466.832 429.998 464.535C432.938 452.815 425.799 445.248 423.554 443.161L423.245 443.49C425.46 445.545 432.439 452.952 429.558 464.426C428.947 466.879 429.659 469.268 430.865 471.582C431.691 473.173 432.771 474.754 433.829 476.309C434.31 477.007 434.779 477.7 435.224 478.386C436.674 480.619 437.832 482.787 437.986 484.922C438.141 487.032 437.321 489.149 434.702 491.295C431.898 493.589 430.479 496.029 429.742 498.487C429.036 500.831 428.958 503.187 428.881 505.416C428.881 505.515 428.875 505.616 428.875 505.716C428.792 508.045 428.685 510.221 427.877 512.164C427.076 514.092 425.567 515.812 422.639 517.197C419.242 518.805 416.741 522.299 415.31 526.316C413.873 530.335 413.48 534.916 414.348 538.743L414.365 538.812L414.419 538.861C416.177 540.44 418.184 541.897 420.038 542.859L420.275 542.476C420.21 542.433 420.138 542.343 420.079 542.184C420.02 542.026 419.972 541.817 419.943 541.556C419.883 541.034 419.901 540.341 419.99 539.52C420.162 537.88 420.62 535.768 421.303 533.589C421.98 531.409 422.882 529.171 423.946 527.275C425.009 525.374 426.22 523.842 427.515 523.047C431.12 520.82 433.342 518.666 434.797 516.526C436.246 514.387 436.917 512.276 437.446 510.156C437.564 509.666 437.683 509.175 437.796 508.682C438.675 504.929 439.572 501.102 443.943 496.839C446.373 494.473 447.139 491.718 446.961 488.736C446.782 485.767 445.66 482.566 444.312 479.284C443.896 478.27 443.456 477.248 443.011 476.222C442.025 473.915 441.021 471.583 440.231 469.257C439.091 465.901 438.408 462.592 438.842 459.448C439.56 454.251 437.018 448.519 433.734 443.345C431.221 439.388 428.246 435.723 425.906 432.841Z" fill="white"/>
<path d="M418.188 510.336C422.916 496.688 427.044 480.052 422.732 472.326C434.314 480.447 425.517 498.616 418.188 510.336Z" fill="#105CC1"/>
<path d="M409.789 531.11C408.025 534.62 423.396 547.735 425.908 542.66C426.104 542.269 426.372 541.744 426.698 541.099C423.016 540.276 414.725 536.612 410.983 528.534C410.407 529.821 409.985 530.712 409.789 531.11Z" fill="#307FE2"/>
<path d="M409.789 531.11C408.025 534.62 423.396 547.735 425.908 542.66C426.104 542.269 426.372 541.744 426.698 541.099C423.016 540.276 414.725 536.612 410.983 528.534C410.407 529.821 409.985 530.712 409.789 531.11Z" fill="url(#paint6_linear_5_1388)"/>
<path d="M409.789 531.11C408.025 534.62 423.396 547.735 425.908 542.66C426.104 542.269 426.372 541.744 426.698 541.099C423.016 540.276 414.725 536.612 410.983 528.534C410.407 529.821 409.985 530.712 409.789 531.11Z" fill="#105CC1"/>
<path d="M300.638 369.029H223.784C220.389 369.029 217.637 371.78 217.637 375.175V392.598C217.637 395.992 220.389 398.744 223.784 398.744H286.415L305.586 404.975L300.314 398.744H300.638C304.032 398.744 306.784 395.992 306.784 392.598V375.175C306.784 371.78 304.032 369.029 300.638 369.029Z" fill="#8BBAFA"/>
<path fill-rule="evenodd" clip-rule="evenodd" d="M238.246 386.283C239.834 386.283 241.122 384.996 241.122 383.407C241.122 381.819 239.834 380.531 238.246 380.531C236.658 380.531 235.371 381.819 235.371 383.407C235.371 384.996 236.658 386.283 238.246 386.283ZM254.542 386.283C256.13 386.283 257.418 384.996 257.418 383.407C257.418 381.819 256.13 380.531 254.542 380.531C252.954 380.531 251.666 381.819 251.666 383.407C251.666 384.996 252.954 386.283 254.542 386.283ZM273.234 383.407C273.234 384.996 271.947 386.283 270.358 386.283C268.77 386.283 267.483 384.996 267.483 383.407C267.483 381.819 268.77 380.531 270.358 380.531C271.947 380.531 273.234 381.819 273.234 383.407ZM286.175 386.283C287.763 386.283 289.051 384.996 289.051 383.407C289.051 381.819 287.763 380.531 286.175 380.531C284.587 380.531 283.299 381.819 283.299 383.407C283.299 384.996 284.587 386.283 286.175 386.283Z" fill="white"/>
<defs>
<filter id="filter0_d_5_1388" x="0" y="0.363037" width="311.318" height="311.318" filterUnits="userSpaceOnUse" color-interpolation-filters="sRGB">
<feFlood flood-opacity="0" result="BackgroundImageFix"/>
<feColorMatrix in="SourceAlpha" type="matrix" values="0 0 0 0 0 0 0 0 0 0 0 0 0 0 0 0 0 0 127 0" result="hardAlpha"/>
<feOffset dy="-17"/>
<feGaussianBlur stdDeviation="29"/>
<feColorMatrix type="matrix" values="0 0 0 0 0.696557 0 0 0 0 0.836898 0 0 0 0 0.818186 0 0 0 0.05 0"/>
<feBlend mode="normal" in2="BackgroundImageFix" result="effect1_dropShadow_5_1388"/>
<feBlend mode="normal" in="SourceGraphic" in2="effect1_dropShadow_5_1388" result="shape"/>
</filter>
<linearGradient id="paint0_linear_5_1388" x1="538.728" y1="113.351" x2="542.601" y2="137.235" gradientUnits="userSpaceOnUse">
<stop stop-color="#F4AF8A"/>
<stop offset="1" stop-color="#F9C0A1" stop-opacity="0"/>
</linearGradient>
<linearGradient id="paint1_linear_5_1388" x1="374.268" y1="399.784" x2="383.961" y2="404.735" gradientUnits="userSpaceOnUse">
<stop stop-color="#F3AD8F"/>
<stop offset="1" stop-color="#FCC4AC" stop-opacity="0"/>
</linearGradient>
<linearGradient id="paint2_linear_5_1388" x1="409.613" y1="529.447" x2="385.369" y2="517.047" gradientUnits="userSpaceOnUse">
<stop stop-color="#026CF0"/>
<stop offset="1" stop-color="#307FE2" stop-opacity="0"/>
</linearGradient>
<linearGradient id="paint3_linear_5_1388" x1="353.041" y1="378.946" x2="372.136" y2="381.083" gradientUnits="userSpaceOnUse">
<stop stop-color="#FEA568"/>
<stop offset="1" stop-color="#F4B88E"/>
</linearGradient>
<linearGradient id="paint4_linear_5_1388" x1="317.668" y1="493.379" x2="318.922" y2="482.993" gradientUnits="userSpaceOnUse">
<stop stop-color="#0154F7"/>
<stop offset="1" stop-color="#307FE2" stop-opacity="0"/>
</linearGradient>
<linearGradient id="paint5_linear_5_1388" x1="448.317" y1="493.785" x2="439.67" y2="490.135" gradientUnits="userSpaceOnUse">
<stop stop-color="#0071FF"/>
<stop offset="1" stop-color="#307FE2" stop-opacity="0"/>
</linearGradient>
<linearGradient id="paint6_linear_5_1388" x1="448.317" y1="493.785" x2="439.67" y2="490.135" gradientUnits="userSpaceOnUse">
<stop stop-color="#0071FF"/>
<stop offset="1" stop-color="#307FE2" stop-opacity="0"/>
</linearGradient>
</defs>
</svg>
